<?xml version="1.0" encoding="utf-8"?>
<!-- Generator: Adobe Illustrator 24.1.0, SVG Export Plug-In . SVG Version: 6.00 Build 0)  -->
<svg version="1.1" id="Modo_de_aislamiento" xmlns="http://www.w3.org/2000/svg" xmlns:xlink="http://www.w3.org/1999/xlink"
	 x="0px" y="0px" viewBox="0 0 129.8 129.4" style="enable-background:new 0 0 129.8 129.4;" xml:space="preserve">
<style type="text/css">
	.st0{fill:#FFFFFF;}
</style>
<g>
	<g>
		<path class="st0" d="M99.4,23.1c-4.2,0-7.6,3.4-7.6,7.6c0,4.2,3.4,7.6,7.6,7.6c4.2,0,7.6-3.4,7.6-7.6
			C107,26.5,103.6,23.1,99.4,23.1z"/>
		<path class="st0" d="M65.7,32.8c-17.6,0-31.9,14.3-31.9,31.9c0,17.6,14.3,31.9,31.9,31.9c17.6,0,31.9-14.3,31.9-31.9
			C97.5,47.1,83.2,32.8,65.7,32.8z M65.7,85.1c-11.3,0-20.4-9.2-20.4-20.4s9.2-20.4,20.4-20.4c11.3,0,20.4,9.2,20.4,20.4
			S76.9,85.1,65.7,85.1z"/>
		<path class="st0" d="M91,129.4H39.3c-21.4,0-38.9-17.4-38.9-38.9V38.9C0.4,17.4,17.9,0,39.3,0H91c21.4,0,38.9,17.4,38.9,38.9v51.7
			C129.8,111.9,112.4,129.4,91,129.4z M39.3,12.2c-14.7,0-26.7,12-26.7,26.7v51.7c0,14.7,12,26.7,26.7,26.7H91
			c14.7,0,26.7-12,26.7-26.7V38.9c0-14.7-12-26.7-26.7-26.7H39.3z"/>
	</g>
</g>
</svg>
