<?xml version="1.0" encoding="utf-8"?>
<!-- Generator: Adobe Illustrator 23.0.5, SVG Export Plug-In . SVG Version: 6.00 Build 0)  -->
<svg version="1.1" id="Capa_1" xmlns="http://www.w3.org/2000/svg" xmlns:xlink="http://www.w3.org/1999/xlink" x="0px" y="0px"
	 viewBox="0 0 1274 258" style="enable-background:new 0 0 1274 258;" xml:space="preserve">
<style type="text/css">
	.st0{fill:#BD910B;}
	.st1{fill:#FFFFFF;}
	.st2{fill:#BD910B;stroke:#BD910B;stroke-miterlimit:10;}
	.st3{fill:#AE8E25;}
</style>
<g>
	<path class="st0" d="M45.69,129.93c-4.68,0-7.76,1.61-7.76,5.09c0,13.79,48.99,5.62,48.99,39.49c0,19.94-17.67,29.45-38.68,29.45
		c-15.93,0-33.33-5.62-45.11-14.86l10.44-21.15c9.64,8.16,25.3,14.32,34.94,14.32c5.89,0,9.64-2.01,9.64-6.29
		c0-14.19-48.99-5.22-48.99-38.28c0-18.07,15.39-29.58,38.82-29.58c14.32,0,29.05,4.28,39.22,10.84l-10.31,21.42
		C67.24,134.88,53.59,129.93,45.69,129.93"/>
	<polygon class="st0" points="250.99,173.43 250.99,203.15 220.27,203.15 220.27,173.97 185.87,109.32 215.15,109.32 235.63,147.6 
		254.14,109.32 284.73,109.32 	"/>
	<path class="st0" d="M334.82,127.12c-16.06,0-28.51,12.45-28.51,28.78s12.45,28.91,28.51,28.91c8.43,0,17.67-4.28,24.36-10.98
		l12.45,13.52c-9.9,10.17-24.23,16.73-37.88,16.73c-27.97,0-49.12-20.75-49.12-47.92c0-27.04,21.55-47.38,49.93-47.38
		c13.52,0,27.71,6.02,36.94,15.53l-12.31,14.99C352.76,131.94,343.52,127.12,334.82,127.12"/>
	<path class="st0" d="M475.1,156.3c0,27.04-21.68,47.78-50.33,47.78s-50.33-20.61-50.33-47.78c0-27.31,21.68-47.52,50.33-47.52
		C453.42,108.78,475.1,129.13,475.1,156.3 M396.13,156.3c0,16.46,13.25,29.31,28.91,29.31s28.38-12.85,28.38-29.31
		s-12.72-29.05-28.38-29.05C409.25,127.26,396.13,139.84,396.13,156.3"/>
	<polygon class="st0" points="506.97,109.45 552.48,169.69 552.48,109.45 572.55,109.45 572.55,203.15 553.28,203.15 507.9,143.05 
		507.9,203.15 487.69,203.15 487.69,109.45 	"/>
	<path class="st0" d="M624.36,126.59c-7.09,0-11.91,2.54-11.91,7.63c0,17.27,49.93,7.63,49.79,41.36
		c0,18.34-15.93,28.24-36.67,28.24c-15.39,0-30.78-5.89-41.36-14.86l8.43-17.27c9.64,8.57,23.29,14.06,33.2,14.06
		c8.7,0,13.92-3.21,13.92-8.97c0-17.67-49.92-7.36-49.92-40.56c0-17,14.59-27.71,36.27-27.71c13.12,0,26.23,4.02,35.6,10.17
		l-8.16,17.53C643.63,130.33,631.85,126.59,624.36,126.59"/>
	<path class="st0" d="M716.59,185.62c12.58,0,20.88-8.16,20.88-21.68v-54.48h21.15v54.48c0,24.76-16.2,40.15-42.03,40.15
		c-25.97,0-42.56-15.39-42.56-40.15v-54.48h21.15v54.48C695.17,177.45,704,185.62,716.59,185.62"/>
	<polygon class="st0" points="797.3,109.45 797.3,184.68 837.46,184.68 837.46,203.15 776.15,203.15 776.15,109.45 	"/>
	<polygon class="st0" points="917.77,109.45 917.77,127.39 889.13,127.39 889.13,203.15 867.98,203.15 867.98,127.39 839.47,127.39 
		839.47,109.45 	"/>
	<path class="st0" d="M979.88,184.94h-43.37l-7.36,18.2h-21.82l40.69-93.69h21.82l40.02,93.69h-22.62L979.88,184.94z M973.06,167.95
		l-14.72-36.41l-14.85,36.41H973.06z"/>
	<polygon class="st0" points="1037.58,109.45 1083.09,169.69 1083.09,109.45 1103.16,109.45 1103.16,203.15 1083.89,203.15 
		1038.51,143.05 1038.51,203.15 1018.3,203.15 1018.3,109.45 	"/>
	<polygon class="st0" points="1191.51,109.45 1191.51,127.39 1162.87,127.39 1162.87,203.15 1141.72,203.15 1141.72,127.39 
		1113.21,127.39 1113.21,109.45 	"/>
	<path class="st0" d="M1234.08,126.59c-7.09,0-11.91,2.54-11.91,7.63c0,17.27,49.93,7.63,49.79,41.36
		c0,18.34-15.93,28.24-36.68,28.24c-15.39,0-30.78-5.89-41.36-14.86l8.43-17.27c9.64,8.57,23.29,14.06,33.2,14.06
		c8.7,0,13.92-3.21,13.92-8.97c0-17.67-49.92-7.36-49.92-40.56c0-17,14.59-27.71,36.27-27.71c13.12,0,26.23,4.02,35.6,10.17
		l-8.16,17.53C1253.35,130.33,1241.58,126.59,1234.08,126.59"/>
	<polygon class="st0" points="187.18,109.32 187.15,109.32 284.2,1.78 254.77,1.78 155.05,109.32 155.05,109.32 154.99,109.39 
		154.96,109.42 154.96,109.42 123.59,145.46 123.59,109.32 95.75,109.32 95.75,203.15 123.59,203.15 123.59,180.66 134.17,168.88 
		155.99,203.15 189.32,203.15 153.18,147.47 	"/>
	<polygon class="st0" points="135.07,88.69 216.85,1.78 247.05,1.78 165.38,88.69 	"/>
	<polygon class="st0" points="95.23,88.69 177.86,1.78 208.05,1.78 126.39,88.69 	"/>
	<polygon class="st0" points="364.39,83.88 284.97,1.77 254.77,1.77 337.91,88.69 347.47,88.69 369.04,88.69 1272,88.69 1272,83.88 
			"/>
	<polygon class="st0" points="138.53,1.77 60.48,83.88 3.4,83.88 3.4,88.69 55.9,88.69 78.24,88.69 87.06,88.69 168.73,1.77 	"/>
	<rect x="252.98" y="52" class="st1" width="13.7" height="15.12"/>
	<rect x="273.2" y="52" class="st1" width="13.7" height="15.12"/>
	<rect x="253.04" y="73.98" class="st1" width="13.7" height="15.12"/>
	<rect x="273.2" y="73.98" class="st1" width="13.7" height="15.12"/>
	<path class="st2" d="M241.13,255.6l-7.44-10.46c-0.84,0.09-1.7,0.14-2.6,0.14h-8.74v10.33h-3.44v-32.56h12.19
		c4.16,0,7.41,0.99,9.77,2.98c2.36,1.98,3.54,4.71,3.54,8.18c0,2.54-0.65,4.69-1.93,6.44c-1.29,1.75-3.13,3.02-5.51,3.79l7.95,11.16
		L241.13,255.6L241.13,255.6z M238.39,240.21c1.7-1.42,2.56-3.42,2.56-6c0-2.63-0.85-4.66-2.56-6.07c-1.71-1.41-4.17-2.12-7.4-2.12
		h-8.65v16.32h8.65C234.22,242.35,236.68,241.63,238.39,240.21"/>
	<path class="st2" d="M241.13,255.6l-7.44-10.46c-0.84,0.09-1.7,0.14-2.6,0.14h-8.74v10.33h-3.44v-32.56h12.19
		c4.16,0,7.41,0.99,9.77,2.98c2.36,1.98,3.54,4.71,3.54,8.18c0,2.54-0.65,4.69-1.93,6.44c-1.29,1.75-3.13,3.02-5.51,3.79l7.95,11.16
		L241.13,255.6L241.13,255.6z M238.39,240.21c1.7-1.42,2.56-3.42,2.56-6c0-2.63-0.85-4.66-2.56-6.07c-1.71-1.41-4.17-2.12-7.4-2.12
		h-8.65v16.32h8.65C234.22,242.35,236.68,241.63,238.39,240.21z"/>
	<polygon class="st2" points="277.13,252.63 277.13,255.6 254.11,255.6 254.11,223.05 276.43,223.05 276.43,226.02 257.55,226.02 
		257.55,237.6 274.39,237.6 274.39,240.53 257.55,240.53 257.55,252.63 	"/>
	<polygon class="st2" points="277.13,252.63 277.13,255.6 254.11,255.6 254.11,223.05 276.43,223.05 276.43,226.02 257.55,226.02 
		257.55,237.6 274.39,237.6 274.39,240.53 257.55,240.53 257.55,252.63 	"/>
	<path class="st2" d="M307.22,246.91h-18.14l-3.9,8.7h-3.58l14.88-32.56h3.4l14.88,32.56h-3.63L307.22,246.91z M305.97,244.12
		l-7.81-17.49l-7.81,17.49H305.97z"/>
	<path class="st2" d="M307.22,246.91h-18.14l-3.9,8.7h-3.58l14.88-32.56h3.4l14.88,32.56h-3.63L307.22,246.91z M305.97,244.12
		l-7.81-17.49l-7.81,17.49H305.97z"/>
	<polygon class="st2" points="321.74,223.05 325.18,223.05 325.18,252.63 343.41,252.63 343.41,255.6 321.74,255.6 	"/>
	<polygon class="st2" points="321.74,223.05 325.18,223.05 325.18,252.63 343.41,252.63 343.41,255.6 321.74,255.6 	"/>
	<polygon class="st2" points="354.01,226.02 342.57,226.02 342.57,223.05 368.9,223.05 368.9,226.02 357.45,226.02 357.45,255.6 
		354.01,255.6 	"/>
	<polygon class="st2" points="354.01,226.02 342.57,226.02 342.57,223.05 368.9,223.05 368.9,226.02 357.45,226.02 357.45,255.6 
		354.01,255.6 	"/>
	<polygon class="st2" points="386.89,244.35 386.89,255.6 383.5,255.6 383.5,244.35 370.48,223.05 374.15,223.05 385.31,241.33 
		396.48,223.05 399.92,223.05 	"/>
	<polygon class="st2" points="386.89,244.35 386.89,255.6 383.5,255.6 383.5,244.35 370.48,223.05 374.15,223.05 385.31,241.33 
		396.48,223.05 399.92,223.05 	"/>
	<path class="st2" d="M443.91,256.11l-4.51-4.65c-2.76,2.95-6.39,4.42-10.88,4.42c-2.11,0-3.99-0.35-5.65-1.05s-2.95-1.67-3.88-2.93
		s-1.4-2.69-1.4-4.3c0-1.95,0.62-3.71,1.86-5.26c1.24-1.55,3.35-3.18,6.33-4.88c-1.55-1.61-2.62-2.98-3.21-4.11s-0.88-2.33-0.88-3.6
		c0-2.08,0.74-3.75,2.23-5.02c1.49-1.27,3.49-1.91,6-1.91c2.32,0,4.17,0.57,5.53,1.72c1.37,1.15,2.05,2.73,2.05,4.75
		c0,1.61-0.54,3.06-1.63,4.35c-1.09,1.29-2.96,2.71-5.63,4.25l8.93,9.21c0.99-1.77,1.72-3.86,2.19-6.28l2.7,0.84
		c-0.59,2.91-1.55,5.41-2.88,7.49l4.65,4.79L443.91,256.11z M437.45,249.46l-9.81-10.09c-2.57,1.46-4.35,2.77-5.33,3.95
		c-0.97,1.18-1.46,2.5-1.46,3.95c0,1.77,0.72,3.19,2.16,4.25c1.44,1.07,3.34,1.6,5.7,1.6C432.3,253.14,435.22,251.91,437.45,249.46
		 M426.13,226.49c-0.92,0.81-1.37,1.88-1.37,3.21c0,0.96,0.25,1.88,0.74,2.74c0.5,0.87,1.47,2.05,2.93,3.54
		c2.35-1.36,3.98-2.53,4.88-3.49s1.35-2.02,1.35-3.16c0-1.24-0.42-2.23-1.26-2.95c-0.84-0.73-2-1.09-3.49-1.09
		C428.3,225.28,427.04,225.68,426.13,226.49"/>
	<path class="st2" d="M443.91,256.11l-4.51-4.65c-2.76,2.95-6.39,4.42-10.88,4.42c-2.11,0-3.99-0.35-5.65-1.05s-2.95-1.67-3.88-2.93
		s-1.4-2.69-1.4-4.3c0-1.95,0.62-3.71,1.86-5.26c1.24-1.55,3.35-3.18,6.33-4.88c-1.55-1.61-2.62-2.98-3.21-4.11s-0.88-2.33-0.88-3.6
		c0-2.08,0.74-3.75,2.23-5.02c1.49-1.27,3.49-1.91,6-1.91c2.32,0,4.17,0.57,5.53,1.72c1.37,1.15,2.05,2.73,2.05,4.75
		c0,1.61-0.54,3.06-1.63,4.35c-1.09,1.29-2.96,2.71-5.63,4.25l8.93,9.21c0.99-1.77,1.72-3.86,2.19-6.28l2.7,0.84
		c-0.59,2.91-1.55,5.41-2.88,7.49l4.65,4.79L443.91,256.11z M437.45,249.46l-9.81-10.09c-2.57,1.46-4.35,2.77-5.33,3.95
		c-0.97,1.18-1.46,2.5-1.46,3.95c0,1.77,0.72,3.19,2.16,4.25c1.44,1.07,3.34,1.6,5.7,1.6C432.3,253.14,435.22,251.91,437.45,249.46z
		 M426.13,226.49c-0.92,0.81-1.37,1.88-1.37,3.21c0,0.96,0.25,1.88,0.74,2.74c0.5,0.87,1.47,2.05,2.93,3.54
		c2.35-1.36,3.98-2.53,4.88-3.49s1.35-2.02,1.35-3.16c0-1.24-0.42-2.23-1.26-2.95c-0.84-0.73-2-1.09-3.49-1.09
		C428.3,225.28,427.04,225.68,426.13,226.49z"/>
	<path class="st2" d="M489.03,226.02c2.36,1.98,3.54,4.71,3.54,8.18s-1.18,6.2-3.54,8.16c-2.36,1.97-5.61,2.95-9.77,2.95h-8.74
		v10.28h-3.44v-32.56h12.19C483.42,223.05,486.67,224.04,489.03,226.02 M486.57,240.19c1.71-1.41,2.56-3.4,2.56-5.98
		c0-2.64-0.85-4.66-2.56-6.07s-4.17-2.12-7.4-2.12h-8.65v16.28h8.65C482.4,242.3,484.86,241.6,486.57,240.19"/>
	<path class="st2" d="M489.03,226.02c2.36,1.98,3.54,4.71,3.54,8.18s-1.18,6.2-3.54,8.16c-2.36,1.97-5.61,2.95-9.77,2.95h-8.74
		v10.28h-3.44v-32.56h12.19C483.42,223.05,486.67,224.04,489.03,226.02z M486.57,240.19c1.71-1.41,2.56-3.4,2.56-5.98
		c0-2.64-0.85-4.66-2.56-6.07s-4.17-2.12-7.4-2.12h-8.65v16.28h8.65C482.4,242.3,484.86,241.6,486.57,240.19z"/>
	<path class="st2" d="M523.82,255.6l-7.44-10.46c-0.84,0.09-1.71,0.14-2.61,0.14h-8.74v10.33h-3.44v-32.56h12.19
		c4.16,0,7.41,0.99,9.77,2.98c2.36,1.98,3.53,4.71,3.53,8.18c0,2.54-0.64,4.69-1.93,6.44s-3.12,3.02-5.51,3.79l7.95,11.16
		L523.82,255.6L523.82,255.6z M521.08,240.21c1.71-1.42,2.56-3.42,2.56-6c0-2.63-0.85-4.66-2.56-6.07s-4.17-2.12-7.4-2.12h-8.65
		v16.32h8.65C516.91,242.35,519.37,241.63,521.08,240.21"/>
	<path class="st2" d="M523.82,255.6l-7.44-10.46c-0.84,0.09-1.71,0.14-2.61,0.14h-8.74v10.33h-3.44v-32.56h12.19
		c4.16,0,7.41,0.99,9.77,2.98c2.36,1.98,3.53,4.71,3.53,8.18c0,2.54-0.64,4.69-1.93,6.44s-3.12,3.02-5.51,3.79l7.95,11.16
		L523.82,255.6L523.82,255.6z M521.08,240.21c1.71-1.42,2.56-3.42,2.56-6c0-2.63-0.85-4.66-2.56-6.07s-4.17-2.12-7.4-2.12h-8.65
		v16.32h8.65C516.91,242.35,519.37,241.63,521.08,240.21z"/>
	<path class="st2" d="M542.26,253.72c-2.62-1.44-4.67-3.42-6.14-5.93c-1.47-2.51-2.21-5.33-2.21-8.47c0-3.13,0.74-5.95,2.21-8.47
		c1.47-2.51,3.52-4.49,6.14-5.93c2.62-1.44,5.54-2.16,8.77-2.16c3.23,0,6.13,0.71,8.72,2.14c2.59,1.43,4.63,3.4,6.12,5.93
		s2.23,5.36,2.23,8.49s-0.74,5.96-2.23,8.49s-3.53,4.51-6.12,5.93c-2.59,1.43-5.5,2.14-8.72,2.14
		C547.8,255.88,544.88,255.16,542.26,253.72 M558,251.07c2.08-1.16,3.71-2.78,4.88-4.84c1.18-2.06,1.77-4.36,1.77-6.91
		c0-2.54-0.59-4.84-1.77-6.91c-1.18-2.06-2.81-3.67-4.88-4.84c-2.08-1.16-4.4-1.74-6.98-1.74c-2.57,0-4.91,0.58-7,1.74
		s-3.74,2.78-4.93,4.84s-1.79,4.37-1.79,6.91c0,2.54,0.6,4.84,1.79,6.91c1.19,2.06,2.84,3.67,4.93,4.84c2.09,1.16,4.43,1.74,7,1.74
		C553.6,252.81,555.93,252.23,558,251.07"/>
	<path class="st2" d="M542.26,253.72c-2.62-1.44-4.67-3.42-6.14-5.93c-1.47-2.51-2.21-5.33-2.21-8.47c0-3.13,0.74-5.95,2.21-8.47
		c1.47-2.51,3.52-4.49,6.14-5.93c2.62-1.44,5.54-2.16,8.77-2.16c3.23,0,6.13,0.71,8.72,2.14c2.59,1.43,4.63,3.4,6.12,5.93
		s2.23,5.36,2.23,8.49s-0.74,5.96-2.23,8.49s-3.53,4.51-6.12,5.93c-2.59,1.43-5.5,2.14-8.72,2.14
		C547.8,255.88,544.88,255.16,542.26,253.72z M558,251.07c2.08-1.16,3.71-2.78,4.88-4.84c1.18-2.06,1.77-4.36,1.77-6.91
		c0-2.54-0.59-4.84-1.77-6.91c-1.18-2.06-2.81-3.67-4.88-4.84c-2.08-1.16-4.4-1.74-6.98-1.74c-2.57,0-4.91,0.58-7,1.74
		s-3.74,2.78-4.93,4.84s-1.79,4.37-1.79,6.91c0,2.54,0.6,4.84,1.79,6.91c1.19,2.06,2.84,3.67,4.93,4.84c2.09,1.16,4.43,1.74,7,1.74
		C553.6,252.81,555.93,252.23,558,251.07z"/>
	<path class="st2" d="M599.35,226.02c2.36,1.98,3.54,4.71,3.54,8.18s-1.18,6.2-3.54,8.16c-2.36,1.97-5.61,2.95-9.77,2.95h-8.74
		v10.28h-3.44v-32.56h12.19C593.74,223.05,596.99,224.04,599.35,226.02 M596.89,240.19c1.7-1.41,2.56-3.4,2.56-5.98
		c0-2.64-0.85-4.66-2.56-6.07s-4.17-2.12-7.4-2.12h-8.65v16.28h8.65C592.72,242.3,595.18,241.6,596.89,240.19"/>
	<path class="st2" d="M599.35,226.02c2.36,1.98,3.54,4.71,3.54,8.18s-1.18,6.2-3.54,8.16c-2.36,1.97-5.61,2.95-9.77,2.95h-8.74
		v10.28h-3.44v-32.56h12.19C593.74,223.05,596.99,224.04,599.35,226.02z M596.89,240.19c1.7-1.41,2.56-3.4,2.56-5.98
		c0-2.64-0.85-4.66-2.56-6.07s-4.17-2.12-7.4-2.12h-8.65v16.28h8.65C592.72,242.3,595.18,241.6,596.89,240.19z"/>
	<polygon class="st2" points="634.93,252.63 634.93,255.6 611.91,255.6 611.91,223.05 634.23,223.05 634.23,226.02 615.35,226.02 
		615.35,237.6 632.19,237.6 632.19,240.53 615.35,240.53 615.35,252.63 	"/>
	<polygon class="st2" points="634.93,252.63 634.93,255.6 611.91,255.6 611.91,223.05 634.23,223.05 634.23,226.02 615.35,226.02 
		615.35,237.6 632.19,237.6 632.19,240.53 615.35,240.53 615.35,252.63 	"/>
	<path class="st2" d="M666.84,255.6l-7.44-10.46c-0.84,0.09-1.71,0.14-2.6,0.14h-8.74v10.33h-3.44v-32.56h12.19
		c4.15,0,7.41,0.99,9.77,2.98c2.36,1.98,3.54,4.71,3.54,8.18c0,2.54-0.64,4.69-1.93,6.44s-3.12,3.02-5.51,3.79l7.95,11.16
		L666.84,255.6L666.84,255.6z M664.09,240.21c1.71-1.42,2.56-3.42,2.56-6c0-2.63-0.85-4.66-2.56-6.07c-1.7-1.41-4.17-2.12-7.4-2.12
		h-8.65v16.32h8.65C659.92,242.35,662.39,241.63,664.09,240.21"/>
	<path class="st2" d="M666.84,255.6l-7.44-10.46c-0.84,0.09-1.71,0.14-2.6,0.14h-8.74v10.33h-3.44v-32.56h12.19
		c4.15,0,7.41,0.99,9.77,2.98c2.36,1.98,3.54,4.71,3.54,8.18c0,2.54-0.64,4.69-1.93,6.44s-3.12,3.02-5.51,3.79l7.95,11.16
		L666.84,255.6L666.84,255.6z M664.09,240.21c1.71-1.42,2.56-3.42,2.56-6c0-2.63-0.85-4.66-2.56-6.07c-1.7-1.41-4.17-2.12-7.4-2.12
		h-8.65v16.32h8.65C659.92,242.35,662.39,241.63,664.09,240.21z"/>
	<polygon class="st2" points="685.67,226.02 674.23,226.02 674.23,223.05 700.56,223.05 700.56,226.02 689.12,226.02 689.12,255.6 
		685.67,255.6 	"/>
	<polygon class="st2" points="685.67,226.02 674.23,226.02 674.23,223.05 700.56,223.05 700.56,226.02 689.12,226.02 689.12,255.6 
		685.67,255.6 	"/>
	<polygon class="st2" points="718.56,244.35 718.56,255.6 715.16,255.6 715.16,244.35 702.14,223.05 705.81,223.05 716.97,241.33 
		728.14,223.05 731.58,223.05 	"/>
	<polygon class="st2" points="718.56,244.35 718.56,255.6 715.16,255.6 715.16,244.35 702.14,223.05 705.81,223.05 716.97,241.33 
		728.14,223.05 731.58,223.05 	"/>
	<polygon class="st2" points="786.09,223.05 786.09,255.6 782.79,255.6 782.79,229.56 769.99,251.46 768.37,251.46 755.58,229.7 
		755.58,255.6 752.27,255.6 752.27,223.05 755.11,223.05 769.25,247.19 783.25,223.05 	"/>
	<polygon class="st2" points="786.09,223.05 786.09,255.6 782.79,255.6 782.79,229.56 769.99,251.46 768.37,251.46 755.58,229.7 
		755.58,255.6 752.27,255.6 752.27,223.05 755.11,223.05 769.25,247.19 783.25,223.05 	"/>
	<path class="st2" d="M818.69,246.91h-18.14l-3.91,8.7h-3.58l14.88-32.56h3.4l14.88,32.56h-3.63L818.69,246.91z M817.44,244.12
		l-7.81-17.49l-7.81,17.49H817.44z"/>
	<path class="st2" d="M818.69,246.91h-18.14l-3.91,8.7h-3.58l14.88-32.56h3.4l14.88,32.56h-3.63L818.69,246.91z M817.44,244.12
		l-7.81-17.49l-7.81,17.49H817.44z"/>
	<polygon class="st2" points="860.41,223.05 860.41,255.6 857.57,255.6 836.64,229.19 836.64,255.6 833.2,255.6 833.2,223.05 
		836.04,223.05 857.01,249.46 857.01,223.05 	"/>
	<polygon class="st2" points="860.41,223.05 860.41,255.6 857.57,255.6 836.64,229.19 836.64,255.6 833.2,255.6 833.2,223.05 
		836.04,223.05 857.01,249.46 857.01,223.05 	"/>
	<path class="st2" d="M893.01,246.91h-18.14l-3.91,8.7h-3.58l14.88-32.56h3.4l14.88,32.56h-3.63L893.01,246.91z M891.76,244.12
		l-7.81-17.49l-7.81,17.49H891.76z"/>
	<path class="st2" d="M893.01,246.91h-18.14l-3.91,8.7h-3.58l14.88-32.56h3.4l14.88,32.56h-3.63L893.01,246.91z M891.76,244.12
		l-7.81-17.49l-7.81,17.49H891.76z"/>
	<path class="st2" d="M929.99,239.32h3.3v12.42c-1.52,1.33-3.32,2.36-5.4,3.07s-4.26,1.07-6.56,1.07c-3.26,0-6.19-0.71-8.79-2.14
		c-2.61-1.42-4.65-3.4-6.14-5.93s-2.23-5.36-2.23-8.49s0.74-5.96,2.23-8.49s3.53-4.5,6.14-5.93c2.6-1.43,5.55-2.14,8.84-2.14
		c2.48,0,4.76,0.4,6.84,1.19c2.08,0.79,3.83,1.96,5.25,3.51l-2.14,2.19c-2.57-2.54-5.84-3.81-9.81-3.81c-2.64,0-5.02,0.58-7.14,1.75
		c-2.12,1.16-3.79,2.77-5,4.84c-1.21,2.06-1.81,4.37-1.81,6.91c0,2.54,0.6,4.84,1.81,6.88c1.21,2.05,2.87,3.66,4.98,4.84
		s4.48,1.77,7.12,1.77c3.35,0,6.19-0.84,8.51-2.51V239.32z"/>
	<path class="st2" d="M929.99,239.32h3.3v12.42c-1.52,1.33-3.32,2.36-5.4,3.07s-4.26,1.07-6.56,1.07c-3.26,0-6.19-0.71-8.79-2.14
		c-2.61-1.42-4.65-3.4-6.14-5.93s-2.23-5.36-2.23-8.49s0.74-5.96,2.23-8.49s3.53-4.5,6.14-5.93c2.6-1.43,5.55-2.14,8.84-2.14
		c2.48,0,4.76,0.4,6.84,1.19c2.08,0.79,3.83,1.96,5.25,3.51l-2.14,2.19c-2.57-2.54-5.84-3.81-9.81-3.81c-2.64,0-5.02,0.58-7.14,1.75
		c-2.12,1.16-3.79,2.77-5,4.84c-1.21,2.06-1.81,4.37-1.81,6.91c0,2.54,0.6,4.84,1.81,6.88c1.21,2.05,2.87,3.66,4.98,4.84
		s4.48,1.77,7.12,1.77c3.35,0,6.19-0.84,8.51-2.51V239.32z"/>
	<polygon class="st2" points="967.62,252.63 967.62,255.6 944.59,255.6 944.59,223.05 966.92,223.05 966.92,226.02 948.04,226.02 
		948.04,237.6 964.87,237.6 964.87,240.53 948.04,240.53 948.04,252.63 	"/>
	<polygon class="st2" points="967.62,252.63 967.62,255.6 944.59,255.6 944.59,223.05 966.92,223.05 966.92,226.02 948.04,226.02 
		948.04,237.6 964.87,237.6 964.87,240.53 948.04,240.53 948.04,252.63 	"/>
	<polygon class="st2" points="1011.1,223.05 1011.1,255.6 1007.8,255.6 1007.8,229.56 995.01,251.46 993.38,251.46 980.59,229.7 
		980.59,255.6 977.29,255.6 977.29,223.05 980.12,223.05 994.26,247.19 1008.26,223.05 	"/>
	<polygon class="st2" points="1011.1,223.05 1011.1,255.6 1007.8,255.6 1007.8,229.56 995.01,251.46 993.38,251.46 980.59,229.7 
		980.59,255.6 977.29,255.6 977.29,223.05 980.12,223.05 994.26,247.19 1008.26,223.05 	"/>
	<polygon class="st2" points="1046.31,252.63 1046.31,255.6 1023.29,255.6 1023.29,223.05 1045.61,223.05 1045.61,226.02 
		1026.73,226.02 1026.73,237.6 1043.57,237.6 1043.57,240.53 1026.73,240.53 1026.73,252.63 	"/>
	<polygon class="st2" points="1046.31,252.63 1046.31,255.6 1023.29,255.6 1023.29,223.05 1045.61,223.05 1045.61,226.02 
		1026.73,226.02 1026.73,237.6 1043.57,237.6 1043.57,240.53 1026.73,240.53 1026.73,252.63 	"/>
	<polygon class="st2" points="1083.19,223.05 1083.19,255.6 1080.35,255.6 1059.42,229.19 1059.42,255.6 1055.98,255.6 
		1055.98,223.05 1058.82,223.05 1079.8,249.46 1079.8,223.05 	"/>
	<polygon class="st2" points="1083.19,223.05 1083.19,255.6 1080.35,255.6 1059.42,229.19 1059.42,255.6 1055.98,255.6 
		1055.98,223.05 1058.82,223.05 1079.8,249.46 1079.8,223.05 	"/>
	<polygon class="st2" points="1101.7,226.02 1090.26,226.02 1090.26,223.05 1116.59,223.05 1116.59,226.02 1105.14,226.02 
		1105.14,255.6 1101.7,255.6 	"/>
	<polygon class="st2" points="1101.7,226.02 1090.26,226.02 1090.26,223.05 1116.59,223.05 1116.59,226.02 1105.14,226.02 
		1105.14,255.6 1101.7,255.6 	"/>
	<polygon class="st2" points="1137.42,223.05 1140.86,223.05 1140.86,252.63 1159.09,252.63 1159.09,255.6 1137.42,255.6 	"/>
	<polygon class="st2" points="1137.42,223.05 1140.86,223.05 1140.86,252.63 1159.09,252.63 1159.09,255.6 1137.42,255.6 	"/>
	<polygon class="st2" points="1166.4,223.05 1169.84,223.05 1169.84,252.63 1188.07,252.63 1188.07,255.6 1166.4,255.6 	"/>
	<polygon class="st2" points="1166.4,223.05 1169.84,223.05 1169.84,252.63 1188.07,252.63 1188.07,255.6 1166.4,255.6 	"/>
	<path class="st3" d="M1218.62,248.91c-2.51,2.61-5.72,3.91-9.63,3.91c-2.58,0-4.92-0.59-7.02-1.77c-2.11-1.18-3.76-2.79-4.95-4.84
		s-1.79-4.34-1.79-6.88c0-2.54,0.6-4.84,1.79-6.88c1.19-2.05,2.84-3.66,4.95-4.84s4.45-1.77,7.02-1.77c3.87,0,7.08,1.29,9.63,3.86
		h3.64c-0.59-1.26-1.45-2.18-1.45-2.18c-1.42-1.55-3.16-2.73-5.21-3.54c-2.05-0.8-4.28-1.21-6.7-1.21c-3.22,0-6.14,0.71-8.75,2.14
		c-2.6,1.43-4.64,3.4-6.11,5.93s-2.21,5.36-2.21,8.49s0.74,5.96,2.21,8.49s3.5,4.5,6.09,5.93s5.49,2.14,8.72,2.14
		c2.42,0,4.64-0.45,6.72-1.23c1.95-0.73,3.47-1.77,5.23-3.56c0,0,0.44-0.41,1.68-2.18C1222.5,248.9,1218.62,248.91,1218.62,248.91"
		/>
	<path class="st2" d="M1218.62,248.91c-2.51,2.61-5.72,3.91-9.63,3.91c-2.58,0-4.92-0.59-7.02-1.77c-2.11-1.18-3.76-2.79-4.95-4.84
		s-1.79-4.34-1.79-6.88c0-2.54,0.6-4.84,1.79-6.88c1.19-2.05,2.84-3.66,4.95-4.84s4.45-1.77,7.02-1.77c3.87,0,7.08,1.29,9.63,3.86
		h3.64c-0.59-1.26-1.45-2.18-1.45-2.18c-1.42-1.55-3.16-2.73-5.21-3.54c-2.05-0.8-4.28-1.21-6.7-1.21c-3.22,0-6.14,0.71-8.75,2.14
		c-2.6,1.43-4.64,3.4-6.11,5.93s-2.21,5.36-2.21,8.49s0.74,5.96,2.21,8.49s3.5,4.5,6.09,5.93s5.49,2.14,8.72,2.14
		c2.42,0,4.64-0.45,6.72-1.23c1.95-0.73,3.47-1.77,5.23-3.56c0,0,0.44-0.41,1.68-2.18C1222.5,248.9,1218.62,248.91,1218.62,248.91z"
		/>
	<polygon class="st0" points="1254.03,241.78 1254.01,245.91 1248.89,245.91 1248.89,256.09 1256.17,256.09 1256.17,249.44 
		1261.06,249.44 1261.06,256.09 1268.01,256.09 1268.01,246.22 1262.85,246.22 1262.86,241.78 1271.68,241.77 1271.68,237.27 
		1211.2,237.27 1211.18,241.78 	"/>
</g>
</svg>
