<?xml version="1.0" encoding="utf-8"?>
<!-- Generator: Adobe Illustrator 24.1.0, SVG Export Plug-In . SVG Version: 6.00 Build 0)  -->
<svg version="1.1" id="Modo_de_aislamiento" xmlns="http://www.w3.org/2000/svg" xmlns:xlink="http://www.w3.org/1999/xlink"
	 x="0px" y="0px" viewBox="0 0 129.8 130.7" style="enable-background:new 0 0 129.8 130.7;" xml:space="preserve">
<style type="text/css">
	.st0{fill:#FFFFFF;}
	.st1{fill-rule:evenodd;clip-rule:evenodd;fill:#FFFFFF;}
</style>
<g>
	<path class="st0" d="M0.3,129.5l9.3-34.6c-5.3-9.5-8-20.1-8-30.9c0-35.3,28.7-64,64-64c35.3,0,64,28.7,64,64c0,35.3-28.7,64-64,64
		c-10.6,0-21-2.7-30.4-7.8L0.3,129.5z M36.8,107.2l2.2,1.3c8,4.8,17.2,7.3,26.5,7.3c28.6,0,51.9-23.3,51.9-51.9
		c0-28.6-23.3-51.9-51.9-51.9c-28.6,0-51.9,23.3-51.9,51.9c0,9.4,2.6,18.7,7.6,26.9l1.3,2.2l-5.2,19.3L36.8,107.2z"/>
	<path class="st1" d="M89.3,72.9c-2.6-1.6-6.1-3.3-9.2-2.1c-2.4,1-3.9,4.7-5.4,6.6c-0.8,1-1.7,1.1-3,0.6
		c-8.9-3.6-15.8-9.5-20.7-17.7c-0.8-1.3-0.7-2.3,0.3-3.5c1.5-1.8,3.4-3.7,3.8-6.1c0.4-2.4-0.7-5.1-1.7-7.2c-1.2-2.7-2.6-6.5-5.3-8
		c-2.5-1.4-5.7-0.6-7.9,1.2c-3.8,3.1-5.6,8-5.6,12.8c0,1.4,0.2,2.7,0.5,4.1c0.8,3.2,2.2,6.1,3.9,9c1.2,2.1,2.6,4.2,4.1,6.2
		c4.8,6.5,10.7,12.1,17.6,16.3c3.4,2.1,7.1,4,11,5.2c4.3,1.4,8.1,2.9,12.8,2c4.9-0.9,9.7-3.9,11.6-8.6c0.6-1.4,0.9-2.9,0.5-4.4
		C95.8,76.1,91.7,74.3,89.3,72.9z"/>
</g>
</svg>
