<?xml version="1.0" encoding="utf-8"?>
<!-- Generator: Adobe Illustrator 24.1.0, SVG Export Plug-In . SVG Version: 6.00 Build 0)  -->
<svg version="1.1" id="Modo_de_aislamiento" xmlns="http://www.w3.org/2000/svg" xmlns:xlink="http://www.w3.org/1999/xlink"
	 x="0px" y="0px" viewBox="0 0 129.8 107.4" style="enable-background:new 0 0 129.8 107.4;" xml:space="preserve">
<style type="text/css">
	.st0{fill:#FFFFFF;}
</style>
<path class="st0" d="M128.9,13.5c-4.1,1.9-8.6,3-13.1,3.7c2.1-0.4,5.2-4.2,6.4-5.7c1.9-2.3,3.5-5,4.3-7.9c0.1-0.2,0.2-0.5,0-0.7
	c-0.3-0.1-0.5-0.1-0.7,0.1c-4.9,2.7-10.1,4.6-15.5,5.9c-0.4,0.1-0.8,0-1.1-0.3c-0.5-0.5-0.9-1-1.4-1.4c-2.3-1.9-4.7-3.5-7.5-4.6
	c-3.6-1.5-7.6-2.1-11.5-1.9C85.1,1,81.4,2.1,78,3.8c-3.4,1.8-6.4,4.2-8.8,7.2c-2.5,3.1-4.3,6.7-5.3,10.5c-0.9,3.7-0.8,7.4-0.3,11.1
	c0.1,0.6,0,0.7-0.5,0.6c-21.3-3.2-39-10.8-53.3-27.1c-0.6-0.7-1-0.7-1.5,0.1c-6.3,9.4-3.2,24.5,4.6,31.9c1,1,2.1,2,3.3,2.9
	c-0.4,0.1-5.6-0.5-10.3-2.9c-0.6-0.4-0.9-0.2-1,0.5c-0.1,1,0,2,0.2,3.1c1.2,9.5,7.8,18.3,16.8,21.8c1.1,0.5,2.3,0.8,3.4,1
	c-2.1,0.5-4.2,0.8-10.1,0.3c-0.7-0.1-1,0.2-0.7,0.9C19,78,28.6,81.6,35.7,83.6c1,0.2,1.9,0.2,2.9,0.4c-0.1,0.1-0.1,0.1-0.2,0.2
	c-2.4,3.6-10.6,6.3-14.5,7.7c-7,2.4-14.6,3.5-22,2.8c-1.2-0.2-1.4-0.2-1.8,0c-0.3,0.2,0,0.5,0.3,0.8c1.5,1,3,1.9,4.6,2.7
	c4.7,2.5,9.6,4.5,14.7,5.9c26.4,7.3,56.1,1.9,76-17.8c15.6-15.5,21-36.8,21-58.2c0-0.8,1-1.3,1.6-1.7c4.1-3,7.3-6.7,10.3-10.8
	c0.7-0.9,0.7-1.7,0.7-2.1c0-0.1,0-0.1,0-0.1C129.4,13.1,129.4,13.2,128.9,13.5z"/>
</svg>
