<?xml version="1.0" encoding="utf-8"?>
<!-- Generator: Adobe Illustrator 24.1.0, SVG Export Plug-In . SVG Version: 6.00 Build 0)  -->
<svg version="1.1" id="Capa_1" xmlns="http://www.w3.org/2000/svg" xmlns:xlink="http://www.w3.org/1999/xlink" x="0px" y="0px"
	 viewBox="0 0 193.7 193.7" style="enable-background:new 0 0 193.7 193.7;" xml:space="preserve">
<style type="text/css">
	.st0{fill:#BB9543;}
</style>
<g>
	<path class="st0" d="M96.8,193.7C43.4,193.7,0,150.2,0,96.8C0,43.4,43.4,0,96.8,0c8.4,0,16.8,1.1,24.9,3.2c4.5,1.2,7.2,5.9,6,10.4
		s-5.9,7.2-10.4,6c-6.7-1.8-13.6-2.7-20.5-2.7C52.8,17,17,52.8,17,96.8c0,44,35.8,79.8,79.8,79.8c44,0,79.8-35.8,79.8-79.8
		c0-4.7,3.8-8.5,8.5-8.5s8.5,3.8,8.5,8.5C193.7,150.2,150.2,193.7,96.8,193.7z"/>
</g>
<g>
	<path class="st0" d="M90.4,136.9c-0.1,0-0.1,0-0.2,0c-2.4-0.1-4.7-1.1-6.3-3L45.3,88.4c-3-3.6-2.6-8.9,1-12c3.6-3,8.9-2.6,12,1
		l32.5,38.2l82.5-88.9c3.2-3.4,8.6-3.6,12-0.4s3.6,8.6,0.4,12l-89.1,95.9C95.1,135.9,92.8,136.9,90.4,136.9z"/>
</g>
</svg>
